<?xml version="1.0" encoding="utf-8"?>
<!-- Generator: Adobe Illustrator 22.0.1, SVG Export Plug-In . SVG Version: 6.00 Build 0)  -->
<svg version="1.1" id="Layer_1" xmlns="http://www.w3.org/2000/svg" xmlns:xlink="http://www.w3.org/1999/xlink" x="0px" y="0px"
	 width="135px" height="155.9px" viewBox="0 0 135 155.9" style="enable-background:new 0 0 135 155.9;" xml:space="preserve">
<style type="text/css">
	.st0{fill:url(#SVGID_1_);}
	.st1{fill:url(#SVGID_2_);}
	.st2{fill:url(#SVGID_3_);}
	.st3{fill:#B40028;}
	.st4{fill:url(#SVGID_4_);}
</style>
<path d="M101.3,136.4L101.3,136.4z"/>
<path d="M135,116.9"/>
<path d="M33.8,136.4"/>
<path d="M67.5,77.9L67.5,77.9z"/>
<linearGradient id="SVGID_1_" gradientUnits="userSpaceOnUse" x1="-390.1334" y1="454.6739" x2="-389.1334" y2="454.6739" gradientTransform="matrix(67.501 0 0 -38.972 26401.8848 17797.502)">
	<stop  offset="0" style="stop-color:#2B619E"/>
	<stop  offset="0.999" style="stop-color:#00234B"/>
</linearGradient>
<path class="st0" d="M101.2,58.5L67.5,77.9l33.8,19.5l0,0L135,77.9l0,0L101.2,58.5z"/>
<path d="M135,77.9L135,77.9z"/>
<path d="M101.3,58.5"/>
<path d="M135,39"/>
<path d="M67.5,116.9L67.5,116.9z"/>
<path d="M101.3,97.4L101.3,97.4z"/>
<linearGradient id="SVGID_2_" gradientUnits="userSpaceOnUse" x1="-390.1333" y1="458.5869" x2="-389.5383" y2="458.5869" gradientTransform="matrix(67.5 0 0 -77.944 26401.5137 35861.0039)">
	<stop  offset="0" style="stop-color:#0AA5E1"/>
	<stop  offset="1" style="stop-color:#3175BA"/>
</linearGradient>
<path class="st1" d="M67.5,116.9v39l67.5-39v-39L67.5,116.9z"/>
<linearGradient id="SVGID_3_" gradientUnits="userSpaceOnUse" x1="-384.267" y1="454.6739" x2="-382.192" y2="454.6739" gradientTransform="matrix(33.751 0 0 -38.972 13070.6387 17817.002)">
	<stop  offset="1.000000e-03" style="stop-color:#3273BE"/>
	<stop  offset="1" style="stop-color:#00234B"/>
</linearGradient>
<path class="st2" d="M135,77.9L135,77.9l-33.8,19.5l0,0l33.8,19.5l0,0V77.9z"/>
<path d="M33.8,58.5"/>
<path d="M67.5,39L67.5,39z"/>
<path d="M0,39"/>
<path d="M33.8,136.4"/>
<path d="M135,77.9L135,77.9z"/>
<path d="M135,39"/>
<path d="M67.5,116.9L67.5,116.9z"/>
<path class="st3" d="M67.5,116.9L33.8,97.4v-39L0,39v77.9l67.5,39l0,0L67.5,116.9L67.5,116.9z"/>
<path d="M33.8,58.5"/>
<path d="M67.5,39L67.5,39z"/>
<path d="M0,39"/>
<linearGradient id="SVGID_4_" gradientUnits="userSpaceOnUse" x1="-392.0778" y1="457.2826" x2="-393.0417" y2="457.2826" gradientTransform="matrix(135.004 0 0 -58.458 53065.5977 26761.0586)">
	<stop  offset="0" style="stop-color:#3273BE"/>
	<stop  offset="1" style="stop-color:#0AA5E1"/>
</linearGradient>
<path class="st4" d="M67.5,0L67.5,0L0,39l33.8,19.5L67.5,39l0,0l33.8,19.5L135,39L67.5,0z"/>
</svg>
